<svg width="32" height="33" viewBox="0 0 32 33" fill="none" xmlns="http://www.w3.org/2000/svg">
<path d="M9.33301 28.5C8.59968 28.5 7.97168 28.2387 7.44901 27.716C6.92635 27.1933 6.66546 26.5658 6.66635 25.8333V8.5C6.28857 8.5 5.97168 8.372 5.71568 8.116C5.45968 7.86 5.33212 7.54356 5.33301 7.16667C5.33301 6.78889 5.46101 6.472 5.71701 6.216C5.97301 5.96 6.28946 5.83245 6.66635 5.83334H11.9997C11.9997 5.45556 12.1277 5.13867 12.3837 4.88267C12.6397 4.62667 12.9561 4.49912 13.333 4.5H18.6663C19.0441 4.5 19.361 4.628 19.617 4.884C19.873 5.14 20.0006 5.45645 19.9997 5.83334H25.333C25.7108 5.83334 26.0277 5.96134 26.2837 6.21734C26.5397 6.47334 26.6672 6.78978 26.6663 7.16667C26.6663 7.54445 26.5383 7.86134 26.2823 8.11734C26.0263 8.37334 25.7099 8.50089 25.333 8.5V25.8333C25.333 26.5667 25.0717 27.1947 24.549 27.7173C24.0263 28.24 23.3988 28.5009 22.6663 28.5H9.33301ZM9.33301 8.5V25.8333H22.6663V8.5H9.33301ZM11.9997 21.8333C11.9997 22.2111 12.1277 22.528 12.3837 22.784C12.6397 23.04 12.9561 23.1676 13.333 23.1667C13.7108 23.1667 14.0277 23.0387 14.2837 22.7827C14.5397 22.5267 14.6672 22.2102 14.6663 21.8333V12.5C14.6663 12.1222 14.5383 11.8053 14.2823 11.5493C14.0263 11.2933 13.7099 11.1658 13.333 11.1667C12.9552 11.1667 12.6383 11.2947 12.3823 11.5507C12.1263 11.8067 11.9988 12.1231 11.9997 12.5V21.8333ZM17.333 21.8333C17.333 22.2111 17.461 22.528 17.717 22.784C17.973 23.04 18.2895 23.1676 18.6663 23.1667C19.0441 23.1667 19.361 23.0387 19.617 22.7827C19.873 22.5267 20.0006 22.2102 19.9997 21.8333V12.5C19.9997 12.1222 19.8717 11.8053 19.6157 11.5493C19.3597 11.2933 19.0432 11.1658 18.6663 11.1667C18.2886 11.1667 17.9717 11.2947 17.7157 11.5507C17.4597 11.8067 17.3321 12.1231 17.333 12.5V21.8333Z" fill="#575E6F"/>
</svg>
