<svg width="109" height="18" viewBox="0 0 109 18" fill="none" xmlns="http://www.w3.org/2000/svg">
<path d="M8.84131 0.230779L11.2692 5.68903L16.6966 6.56451C16.7655 6.57584 16.8302 6.60821 16.8833 6.65797C16.9364 6.70774 16.976 6.77292 16.9974 6.84619C17.0189 6.91945 17.0214 6.99789 17.0047 7.07266C16.9881 7.14743 16.9528 7.21557 16.903 7.2694L12.9765 11.5171L13.9036 17.5162C13.9155 17.592 13.908 17.6701 13.8819 17.7414C13.8558 17.8128 13.8121 17.8746 13.7559 17.9199C13.6996 17.9652 13.633 17.9922 13.5636 17.9978C13.4941 18.0034 13.4247 17.9873 13.3631 17.9515L8.50837 15.1197L3.65364 17.9523C3.59209 17.9883 3.52264 18.0044 3.45319 17.999C3.38375 17.9935 3.31708 17.9665 3.26078 17.9212C3.20448 17.8759 3.1608 17.8141 3.13471 17.7427C3.10861 17.6713 3.10115 17.5933 3.11316 17.5174L4.04023 11.5171L0.112579 7.2694C0.0627779 7.21557 0.0275565 7.14743 0.010881 7.07266C-0.00579453 6.99789 -0.00326177 6.91945 0.018194 6.84619C0.0396498 6.77292 0.0791765 6.70774 0.132323 6.65797C0.185469 6.60821 0.250123 6.57584 0.319005 6.56451L5.7464 5.68903L8.17542 0.230779C8.20571 0.161612 8.25301 0.103279 8.3119 0.0624633C8.37078 0.0216477 8.43887 0 8.50837 0C8.57786 0 8.64595 0.0216477 8.70484 0.0624633C8.76372 0.103279 8.81102 0.161612 8.84131 0.230779Z" fill="#C76001"/>
<path d="M31.812 0.230779L34.2399 5.68903L39.6673 6.56451C39.7362 6.57584 39.8009 6.60821 39.854 6.65797C39.9072 6.70774 39.9467 6.77292 39.9681 6.84619C39.9896 6.91945 39.9921 6.99789 39.9754 7.07266C39.9588 7.14743 39.9236 7.21557 39.8738 7.2694L35.9472 11.5171L36.8743 17.5162C36.8862 17.592 36.8787 17.6701 36.8526 17.7414C36.8265 17.8128 36.7829 17.8746 36.7266 17.9199C36.6703 17.9652 36.6037 17.9922 36.5343 17.9978C36.4648 18.0034 36.3954 17.9873 36.3338 17.9515L31.4791 15.1197L26.6243 17.9523C26.5628 17.9883 26.4933 18.0044 26.4239 17.999C26.3544 17.9935 26.2878 17.9665 26.2315 17.9212C26.1752 17.8759 26.1315 17.8141 26.1054 17.7427C26.0793 17.6713 26.0719 17.5933 26.0839 17.5174L27.0109 11.5171L23.0833 7.2694C23.0335 7.21557 22.9983 7.14743 22.9816 7.07266C22.9649 6.99789 22.9674 6.91945 22.9889 6.84619C23.0104 6.77292 23.0499 6.70774 23.103 6.65797C23.1562 6.60821 23.2208 6.57584 23.2897 6.56451L28.7171 5.68903L31.1461 0.230779C31.1764 0.161612 31.2237 0.103279 31.2826 0.0624633C31.3415 0.0216477 31.4096 0 31.4791 0C31.5486 0 31.6167 0.0216477 31.6755 0.0624633C31.7344 0.103279 31.7817 0.161612 31.812 0.230779Z" fill="#C76001"/>
<path d="M54.7837 0.230779L57.2116 5.68903L62.639 6.56451C62.7079 6.57584 62.7725 6.60821 62.8257 6.65797C62.8788 6.70774 62.9184 6.77292 62.9398 6.84619C62.9613 6.91945 62.9638 6.99789 62.9471 7.07266C62.9305 7.14743 62.8952 7.21557 62.8454 7.2694L58.9189 11.5171L59.846 17.5162C59.8579 17.592 59.8504 17.6701 59.8243 17.7414C59.7982 17.8128 59.7545 17.8746 59.6983 17.9199C59.642 17.9652 59.5754 17.9922 59.5059 17.9978C59.4365 18.0034 59.3671 17.9873 59.3055 17.9515L54.4507 15.1197L49.596 17.9523C49.5345 17.9883 49.465 18.0044 49.3956 17.999C49.3261 17.9935 49.2595 17.9665 49.2032 17.9212C49.1469 17.8759 49.1032 17.8141 49.0771 17.7427C49.051 17.6713 49.0435 17.5933 49.0555 17.5174L49.9826 11.5171L46.055 7.2694C46.0052 7.21557 45.9699 7.14743 45.9533 7.07266C45.9366 6.99789 45.9391 6.91945 45.9606 6.84619C45.982 6.77292 46.0216 6.70774 46.0747 6.65797C46.1279 6.60821 46.1925 6.57584 46.2614 6.56451L51.6888 5.68903L54.1178 0.230779C54.1481 0.161612 54.1954 0.103279 54.2543 0.0624633C54.3132 0.0216477 54.3813 0 54.4507 0C54.5202 0 54.5883 0.0216477 54.6472 0.0624633C54.7061 0.103279 54.7534 0.161612 54.7837 0.230779Z" fill="#C76001"/>
<path d="M77.7544 0.230779L80.1823 5.68903L85.6097 6.56451C85.6786 6.57584 85.7432 6.60821 85.7964 6.65797C85.8495 6.70774 85.8891 6.77292 85.9105 6.84619C85.932 6.91945 85.9345 6.99789 85.9178 7.07266C85.9012 7.14743 85.8659 7.21557 85.8161 7.2694L81.8896 11.5171L82.8167 17.5162C82.8286 17.592 82.8211 17.6701 82.795 17.7414C82.7689 17.8128 82.7252 17.8746 82.669 17.9199C82.6127 17.9652 82.5461 17.9922 82.4767 17.9978C82.4072 18.0034 82.3378 17.9873 82.2762 17.9515L77.4215 15.1197L72.5667 17.9523C72.5052 17.9883 72.4357 18.0044 72.3663 17.999C72.2968 17.9935 72.2302 17.9665 72.1739 17.9212C72.1176 17.8759 72.0739 17.8141 72.0478 17.7427C72.0217 17.6713 72.0142 17.5933 72.0262 17.5174L72.9533 11.5171L69.0257 7.2694C68.9759 7.21557 68.9406 7.14743 68.924 7.07266C68.9073 6.99789 68.9098 6.91945 68.9313 6.84619C68.9527 6.77292 68.9923 6.70774 69.0454 6.65797C69.0986 6.60821 69.1632 6.57584 69.2321 6.56451L74.6595 5.68903L77.0885 0.230779C77.1188 0.161612 77.1661 0.103279 77.225 0.0624633C77.2839 0.0216477 77.352 0 77.4215 0C77.4909 0 77.559 0.0216477 77.6179 0.0624633C77.6768 0.103279 77.7241 0.161612 77.7544 0.230779Z" fill="#C76001"/>
<path d="M100.726 0.230779L103.154 5.68903L108.581 6.56451C108.65 6.57584 108.715 6.60821 108.768 6.65797C108.821 6.70774 108.861 6.77292 108.882 6.84619C108.904 6.91945 108.906 6.99789 108.89 7.07266C108.873 7.14743 108.838 7.21557 108.788 7.2694L104.861 11.5171L105.788 17.5162C105.8 17.592 105.793 17.6701 105.767 17.7414C105.741 17.8128 105.697 17.8746 105.641 17.9199C105.584 17.9652 105.518 17.9922 105.448 17.9978C105.379 18.0034 105.309 17.9873 105.248 17.9515L100.393 15.1197L95.5384 17.9523C95.4769 17.9883 95.4074 18.0044 95.338 17.999C95.2685 17.9935 95.2018 17.9665 95.1456 17.9212C95.0893 17.8759 95.0456 17.8141 95.0195 17.7427C94.9934 17.6713 94.9859 17.5933 94.9979 17.5174L95.925 11.5171L91.9973 7.2694C91.9475 7.21557 91.9123 7.14743 91.8956 7.07266C91.879 6.99789 91.8815 6.91945 91.903 6.84619C91.9244 6.77292 91.9639 6.70774 92.0171 6.65797C92.0702 6.60821 92.1349 6.57584 92.2038 6.56451L97.6312 5.68903L100.06 0.230779C100.09 0.161612 100.138 0.103279 100.197 0.0624633C100.256 0.0216477 100.324 0 100.393 0C100.463 0 100.531 0.0216477 100.59 0.0624633C100.648 0.103279 100.696 0.161612 100.726 0.230779Z" fill="#C76001"/>
</svg>
