<svg width="80" height="79" viewBox="0 0 80 79" fill="none" xmlns="http://www.w3.org/2000/svg">
<path d="M40.0006 0C50.3924 0 60.3585 4.13483 67.7066 11.4949C75.0547 18.8549 79.1828 28.8373 79.1828 39.2459C79.1828 49.6546 75.0547 59.637 67.7066 66.997C60.3585 74.3571 50.3924 78.4919 40.0006 78.4919C29.6088 78.4919 19.6427 74.3571 12.2946 66.997C4.94647 59.637 0.818359 49.6546 0.818359 39.2459C0.818359 28.8373 4.94647 18.8549 12.2946 11.4949C19.6427 4.13483 29.6088 0 40.0006 0ZM35.1196 46.9886L26.4156 38.2648C26.1035 37.9522 25.7331 37.7043 25.3254 37.5352C24.9177 37.366 24.4807 37.279 24.0394 37.279C23.5981 37.279 23.1612 37.366 22.7535 37.5352C22.3458 37.7043 21.9753 37.9522 21.6633 38.2648C21.0331 38.896 20.6791 39.7521 20.6791 40.6448C20.6791 41.5374 21.0331 42.3936 21.6633 43.0248L32.7463 54.1258C33.0574 54.4399 33.4276 54.6892 33.8354 54.8593C34.2432 55.0294 34.6806 55.117 35.1224 55.117C35.5642 55.117 36.0016 55.0294 36.4094 54.8593C36.8172 54.6892 37.1874 54.4399 37.4985 54.1258L60.4481 31.1332C60.7643 30.822 61.0159 30.4511 61.1883 30.042C61.3607 29.6329 61.4505 29.1936 61.4525 28.7496C61.4546 28.3055 61.3689 27.8655 61.2003 27.4548C61.0317 27.0441 60.7836 26.6709 60.4703 26.3567C60.157 26.0425 59.7847 25.7936 59.3749 25.6242C58.965 25.4549 58.5258 25.3685 58.0824 25.37C57.6391 25.3716 57.2005 25.461 56.7918 25.6332C56.3832 25.8054 56.0126 26.0569 55.7015 26.3733L35.1196 46.9886Z" fill="#73BD4F"/>
</svg>
