<svg width="40" height="40" viewBox="0 0 40 40" fill="none" xmlns="http://www.w3.org/2000/svg">
<rect width="40" height="40" rx="7" fill="#F1F1F1"/>
<path d="M27.3131 14.937C27.7641 14.6864 27.5862 13.9999 27.0703 13.9999H12.9294C12.4135 13.9999 12.2356 14.6864 12.6866 14.937L19.7572 18.865C19.9082 18.9489 20.0918 18.9489 20.2428 18.865L27.3131 14.937Z" fill="black"/>
<path d="M12.7496 16.4317C12.4163 16.2397 12 16.4803 12 16.865V23.9999C12 25.1045 12.8954 25.9999 14 25.9999H26C27.1046 25.9999 28 25.1045 28 23.9999V16.7388C28 16.3516 27.5789 16.1113 27.2456 16.3083L20.9998 19.9999C20.4002 20.4329 19.5932 20.4423 18.9838 20.0233L12.7496 16.4317Z" fill="black"/>
</svg>
